<?xml version="1.0" encoding="utf-8"?>
<svg version="1.1" xmlns:xlink="http://www.w3.org/1999/xlink" width="14px" height="13px" xmlns="http://www.w3.org/2000/svg">
  <g transform="matrix(1 0 0 1 -579 -756 )">
    <path d="M 13.859719438877756 11.573498964803314  C 13.953239812959252 11.663216011042097  14 11.7663906142167  14 11.883022774327122  C 14 11.999654934437544  13.953239812959252 12.102829537612145  13.859719438877756 12.192546583850932  L 13.158316633266534 12.865424430641822  C 13.064796259185039 12.955141476880609  12.957247828991317 13  12.83567134268537 13  C 12.714094856379425 13  12.606546426185705 12.955141476880609  12.513026052104209 12.865424430641822  L 7 7.576604554865425  L 1.4869739478957915 12.865424430641822  C 1.3934535738142952 12.955141476880609  1.2859051436205746 13  1.1643286573146292 13  C 1.0427521710086842 13  0.9352037408149636 12.955141476880609  0.8416833667334669 12.865424430641822  L 0.1402805611222445 12.192546583850932  C 0.0467601870407483 12.102829537612145  0 11.999654934437544  0 11.883022774327122  C 0 11.7663906142167  0.0467601870407483 11.663216011042097  0.1402805611222445 11.573498964803314  L 6.677354709418838 5.302277432712215  C 6.770875083500335 5.212560386473428  6.878423513694056 5.167701863354037  7 5.167701863354037  C 7.121576486305946 5.167701863354037  7.229124916499666 5.212560386473428  7.322645290581162 5.302277432712215  L 13.859719438877756 11.573498964803314  Z M 13.859719438877756 6.405797101449275  C 13.953239812959252 6.49551414768806  14 6.598688750862664  14 6.715320910973085  C 14 6.831953071083506  13.953239812959252 6.9351276742581085  13.859719438877756 7.024844720496895  L 13.158316633266534 7.697722567287784  C 13.064796259185039 7.78743961352657  12.957247828991317 7.832298136645963  12.83567134268537 7.832298136645963  C 12.714094856379425 7.832298136645963  12.606546426185705 7.78743961352657  12.513026052104209 7.697722567287784  L 7 2.408902691511387  L 1.4869739478957915 7.697722567287784  C 1.3934535738142952 7.78743961352657  1.2859051436205746 7.832298136645963  1.1643286573146292 7.832298136645963  C 1.0427521710086842 7.832298136645963  0.9352037408149636 7.78743961352657  0.8416833667334669 7.697722567287784  L 0.1402805611222445 7.024844720496895  C 0.0467601870407483 6.9351276742581085  0 6.831953071083506  0 6.715320910973085  C 0 6.598688750862664  0.0467601870407483 6.49551414768806  0.1402805611222445 6.405797101449275  L 6.677354709418838 0.13457556935817783  C 6.770875083500335 0.04485852311939165  6.878423513694056 0  7 0  C 7.121576486305946 0  7.229124916499666 0.04485852311939165  7.322645290581162 0.13457556935817783  L 13.859719438877756 6.405797101449275  Z " fill-rule="nonzero" fill="#000000" stroke="none" fill-opacity="0.7490196078431373" transform="matrix(1 0 0 1 579 756 )" />
  </g>
</svg>