<?xml version="1.0" encoding="utf-8"?>
<svg version="1.1" xmlns:xlink="http://www.w3.org/1999/xlink" width="28px" height="28px" viewBox="415 817  28 28" xmlns="http://www.w3.org/2000/svg">
  <path d="M 415.5 822  A 4.5 4.5 0 0 1 420 817.5 L 438 817.5  A 4.5 4.5 0 0 1 442.5 822 L 442.5 840  A 4.5 4.5 0 0 1 438 844.5 L 420 844.5  A 4.5 4.5 0 0 1 415.5 840 L 415.5 822  Z " fill-rule="nonzero" fill="#ffffff" stroke="none" />
  <path d="M 415.5 822  A 4.5 4.5 0 0 1 420 817.5 L 438 817.5  A 4.5 4.5 0 0 1 442.5 822 L 442.5 840  A 4.5 4.5 0 0 1 438 844.5 L 420 844.5  A 4.5 4.5 0 0 1 415.5 840 L 415.5 822  Z " stroke-width="1" stroke="#797979" fill="none" />
</svg>