<?xml version="1.0" encoding="utf-8"?>
<svg version="1.1" xmlns:xlink="http://www.w3.org/1999/xlink" width="93px" height="93px" xmlns="http://www.w3.org/2000/svg">
  <g transform="matrix(1 0 0 1 -1554 -748 )">
    <path d="M 1600.5 748  C 1626.54 748  1647 768.46  1647 794.5  C 1647 820.54  1626.54 841  1600.5 841  C 1574.46 841  1554 820.54  1554 794.5  C 1554 768.46  1574.46 748  1600.5 748  Z " fill-rule="nonzero" fill="#ffffff" stroke="none" />
    <path d="M 1600.5 748.5  C 1626.26 748.5  1646.5 768.74  1646.5 794.5  C 1646.5 820.26  1626.26 840.5  1600.5 840.5  C 1574.74 840.5  1554.5 820.26  1554.5 794.5  C 1554.5 768.74  1574.74 748.5  1600.5 748.5  Z " stroke-width="1" stroke="#797979" fill="none" />
  </g>
</svg>