<?xml version="1.0" encoding="utf-8"?>
<svg version="1.1" xmlns:xlink="http://www.w3.org/1999/xlink" width="28px" height="28px" viewBox="415 667  28 28" xmlns="http://www.w3.org/2000/svg">
  <path d="M 415.5 672  A 4.5 4.5 0 0 1 420 667.5 L 438 667.5  A 4.5 4.5 0 0 1 442.5 672 L 442.5 690  A 4.5 4.5 0 0 1 438 694.5 L 420 694.5  A 4.5 4.5 0 0 1 415.5 690 L 415.5 672  Z " fill-rule="nonzero" fill="#f0f0f0" stroke="none" />
  <path d="M 415.5 672  A 4.5 4.5 0 0 1 420 667.5 L 438 667.5  A 4.5 4.5 0 0 1 442.5 672 L 442.5 690  A 4.5 4.5 0 0 1 438 694.5 L 420 694.5  A 4.5 4.5 0 0 1 415.5 690 L 415.5 672  Z " stroke-width="1" stroke="#797979" fill="none" />
</svg>